<svg width="152" height="90" viewBox="0 0 152 90" fill="none" xmlns="http://www.w3.org/2000/svg">
<path fill-rule="evenodd" clip-rule="evenodd" d="M115.797 3.54634C122.82 -0.0231514 131.177 0.149159 136.433 1.05048C140.515 1.75065 143.257 5.6278 142.557 9.71033C141.857 13.7929 137.98 16.5348 133.897 15.8346C130.217 15.2035 125.564 15.4087 122.594 16.9181C121.302 17.575 120.524 18.369 120.057 19.358C119.568 20.3916 119.08 22.3605 119.678 25.9159C120.202 29.0317 121.171 29.8277 121.626 30.1507C122.478 30.7562 123.89 31.229 126.914 31.7178C127.32 31.7835 127.778 31.8513 128.275 31.925C130.781 32.2962 134.3 32.8177 137.41 33.9779C141.677 35.5696 145.819 38.4993 148.45 43.9156C152.204 51.6479 152.74 62.6507 148.663 71.9294C144.282 81.8999 134.726 89.5002 119.8 89.5002C105.287 89.5002 96.6241 77.4923 95.5922 65.5711C94.7338 55.6535 98.7752 45.007 108.451 37.7988C106.689 35.2108 105.503 32.0734 104.886 28.4047C103.915 22.6341 104.385 17.4087 106.497 12.9446C108.629 8.43593 112.093 5.42898 115.797 3.54634ZM123.682 46.3862C123.359 46.5809 123.017 46.7536 122.658 46.9017C112.954 50.9009 110.021 58.3291 110.536 64.2776C111.096 70.7457 115.183 74.5002 119.8 74.5002C128.738 74.5002 132.928 70.4516 134.93 65.8955C137.236 60.6476 136.791 54.2461 134.956 50.468C134.318 49.1525 133.54 48.5439 132.167 48.0318C130.67 47.473 129.092 47.2317 126.702 46.8663C126.042 46.7653 125.32 46.6549 124.521 46.5256C124.251 46.482 123.971 46.4359 123.682 46.3862ZM95.2903 1.54692C99.0987 3.17595 100.865 7.58382 99.2363 11.3922L81.2567 53.425C80.0397 56.27 77.2004 58.0756 74.1078 57.9711C71.0152 57.8666 68.3043 55.8736 67.2821 52.9529L58.7706 28.633L47.5268 53.5593C46.2376 56.4171 43.3069 58.1716 40.179 57.958C37.0512 57.7443 34.3862 55.6076 33.4977 52.601L26.8516 30.113L14.8546 57.1313C13.1736 60.917 8.74194 62.6232 4.95623 60.9422C1.17052 59.2612 -0.535693 54.8296 1.14529 51.0439L21.4132 5.39887C22.6888 2.52612 25.6204 0.753535 28.757 0.958521C31.8935 1.16351 34.5695 3.30257 35.4603 6.31691L42.1583 28.9807L52.8138 5.35866C54.0752 2.56238 56.9123 0.816116 59.977 0.949666C63.0417 1.08322 65.7161 3.06965 66.7295 5.96506L75.0606 29.7698L85.4451 5.49294C87.0741 1.68458 91.4819 -0.0821067 95.2903 1.54692Z" fill="white"/>
</svg>
