<svg width="1139" height="2040" viewBox="0 0 1139 2040" fill="none" xmlns="http://www.w3.org/2000/svg">
<path d="M690.905 115.336C681.503 254 783.502 446.618 579.252 376C540.801 409.535 495.178 380.448 440.177 350.689C423.736 350.154 405.447 348.7 395.387 337.576C385.327 326.452 437.653 199.954 433.364 185.706C402.815 84.213 404.542 95.2517 444.577 56.5551C453.387 48.0394 455.291 33.8031 465.67 25.9465C528.762 -21.7599 597.369 6.15183 640.799 36.5465C667.448 55.7751 683.22 85.0019 690.905 115.336Z" fill="#082B25"/>
<path d="M431.215 175.182C417.843 119.531 452.125 63.5783 507.786 50.2083C563.447 36.8383 619.41 71.114 632.782 126.765C646.154 182.417 611.873 238.37 556.211 251.74C500.55 265.11 444.588 230.834 431.215 175.182Z" fill="#DAF1ED"/>
<path d="M596.51 117.537C588.108 134.722 570.302 138.207 554.081 139.686C510.993 143.742 489.061 102.936 456.467 83.8457C440.312 83.8457 439.665 134.152 409.646 141.716C401.893 143.367 404.333 -49.2614 515.323 12.0547C530.166 14.7506 544.533 19.6089 557.965 26.4747C573.3 34.8971 585.657 47.8511 593.347 63.5643C601.537 80.6324 603.76 102.695 596.51 117.537Z" fill="#082B25"/>
<path d="M561.191 1981.42L513.629 1981.41L491.003 1798H561.199L561.191 1981.42Z" fill="#DAF1ED"/>
<path d="M494.306 1953.24L534.503 1964.5L572.503 1943L578.49 2033.47L578.972 2039.25H523.774H434.243C428.915 2039.22 423.816 2037.09 420.052 2033.32C416.288 2029.55 414.165 2024.44 414.141 2019.12C410.363 2001.47 484.818 1963.33 494.306 1953.24Z" fill="#082B25"/>
<path d="M1090.9 1901.02L1051.74 1928L929.003 1789.82L986.8 1750L1090.9 1901.02Z" fill="#DAF1ED"/>
<path d="M1027.03 1919.13L1068.46 1914L1095.21 1879.5L1135.66 1960.64L1138.34 1965.79L1087.43 1987.1L1004.84 2021.67C999.909 2023.7 994.382 2023.7 989.454 2021.67C984.526 2019.65 980.597 2015.76 978.519 2010.85C968.221 1996.04 1022.18 1932.1 1027.03 1919.13Z" fill="#082B25"/>
<path d="M127.329 721.876C136.11 721.315 132.867 711.118 139.55 716.84C140.89 718.025 142.13 719.318 143.257 720.708L296.997 694.541L386.572 733.557C295.982 743.682 127.329 780.633 103.151 762.807C88.6504 740.808 69.4852 725.572 127.329 721.876Z" fill="#DAF1ED"/>
<path d="M391.18 311.031C416.358 306.562 460.571 284.011 474.597 390.468C488.624 496.925 395.557 697.339 385.38 706.24C354.502 720.5 327.324 753.578 276.365 686.329C266.41 673.192 301.948 655.34 303.991 649.447C306.035 643.555 293.087 610.463 309.294 500.466C325.502 390.468 366.002 315.5 391.18 311.031Z" fill="#10564A"/>
<path d="M588.399 325.455C589.344 343.932 553.892 360.762 509.215 363.046C464.538 365.329 431.127 353.521 430.183 335.044C435.588 323.252 428.724 314.736 445.808 307.71C459.678 302.006 485.776 297.156 505.795 296.133C550.472 293.85 587.455 306.978 588.399 325.455Z" fill="#DAF1ED"/>
<path d="M493.875 199.001L541.065 204.934L540.651 389.738L471.002 380.987L493.875 199.001Z" fill="#DAF1ED"/>
<path d="M316.356 910.867C330.504 814.5 368.03 753 368.03 753L593.468 796.462C593.468 796.462 709.656 939.57 683.819 1034.29C668.467 1090.57 737.974 1218.51 764.136 1275C867.981 1499.25 1066 1833 1066 1833C1066 1833 1031.46 1930.08 976.963 1875.8C922.463 1821.52 525.925 1298.36 525.925 1298.36C525.925 1298.36 530.839 1329.75 537.691 1377.49C558.86 1524.95 598.547 1886.13 569.003 1901.5C545.417 1913.71 519.01 1919.43 492.486 1918.07C492.486 1918.07 319.504 1451.5 316.356 1315.58" fill="#082B25"/>
<path d="M435.952 312.588C435.952 312.588 436.502 332.942 480.002 338C523.502 343.058 592.002 331 592.002 331C624.945 363.906 620.323 362.04 640.502 404C671.957 471.182 589.392 795.385 606.617 812.607C515.502 776.5 375.7 793 348.002 793C348.002 718 365.227 557.425 348.002 511.5C330.777 465.575 435.952 312.588 435.952 312.588Z" fill="#10564A"/>
<path d="M554.946 662.432C563.627 663.862 562.762 653.197 567.986 660.277C569.025 661.732 569.942 663.272 570.727 664.879L825.094 634.98L852.863 714.308L562.502 704.5C550.845 707.901 531.995 692.734 524.844 690.683C492.892 648.049 497.754 653.016 554.946 662.432Z" fill="#DAF1ED"/>
<path d="M582.502 669.04C577.649 655.801 542.096 636.637 523.25 631.122C499.692 624.229 474.192 629.379 471.235 632.118C462.791 639.941 446.368 660.308 446.435 669.04C446.492 676.61 460.326 667.656 466.923 661.125C462.306 667.021 454.111 678.127 453.26 681.872C451.93 687.722 458.734 693.884 465.893 682.692C473.051 671.5 485.706 667.711 491.956 665.029C498.206 662.348 508.292 668.072 509.752 674.715C511.768 683.89 491.291 679.235 485.196 683.49C479.101 687.745 482.558 690.582 502.504 693.065C522.45 695.548 547.502 706 573.49 706C578.69 706 572.958 683.962 582.502 669.04Z" fill="#DAF1ED"/>
<path d="M523.421 354.513C523.421 354.513 577.831 294.763 620.611 303.746C721.108 341.593 871.457 535.831 874.503 549C905.5 591 906.053 612.058 895.502 669C895.502 689.499 868.003 733 768.475 716.5C752.002 700 743.503 642 743.503 642C743.503 642 743.503 631.5 763.003 631.5C753.231 613.462 804.242 615.474 787.96 618.054C745.706 562.54 706.801 539.294 639.601 501.357L523.421 354.513Z" fill="#10564A"/>
<path d="M581.29 68.0644C513.539 -10.0558 633.974 299.865 544.002 380.5C580.672 409.59 715.176 399.269 707.576 380.5C699.976 361.731 675.062 79.572 648.331 68.0644C621.599 56.5567 581.29 68.0644 581.29 68.0644Z" fill="#082B25"/>
<rect x="249" y="698" width="290" height="45" rx="10" fill="#A68586"/>
<path d="M0 453.29C0 442.132 9.13066 433.131 20.2877 433.292L397.288 438.716C408.22 438.874 417 447.781 417 458.714V727.71C417 738.868 407.869 747.869 396.712 747.708L19.7123 742.284C8.7799 742.126 0 733.219 0 722.286V453.29Z" fill="#F2CECF"/>
<ellipse cx="101" cy="743" rx="9" ry="17" fill="#DAF1ED"/>
<ellipse cx="118.5" cy="743" rx="8.5" ry="17" fill="#DAF1ED"/>
<ellipse cx="136" cy="743" rx="9" ry="17" fill="#DAF1ED"/>
<ellipse cx="153.5" cy="743" rx="8.5" ry="17" fill="#DAF1ED"/>
<g filter="url(#filter0_f_1192_33)">
<path d="M127 609.087L147.268 563.442L159.69 605.475L178.651 563.442L193.361 605.475L211.341 563.442M254.165 563.442C245.23 561.91 228.144 563.508 231.282 582.16C234.42 600.812 254.165 588.728 260.703 602.192C266.293 613.702 262.664 637 238.801 637C219.669 637 213.302 605.475 238.801 594.967" stroke="white" stroke-width="15" stroke-linecap="round" stroke-linejoin="round"/>
</g>
<defs>
<filter id="filter0_f_1192_33" x="117.498" y="553.501" width="155.002" height="92.999" filterUnits="userSpaceOnUse" color-interpolation-filters="sRGB">
<feFlood flood-opacity="0" result="BackgroundImageFix"/>
<feBlend mode="normal" in="SourceGraphic" in2="BackgroundImageFix" result="shape"/>
<feGaussianBlur stdDeviation="1" result="effect1_foregroundBlur_1192_33"/>
</filter>
</defs>
</svg>
