<svg width="45" height="60" viewBox="0 0 45 60" fill="none" xmlns="http://www.w3.org/2000/svg">
<path fill-rule="evenodd" clip-rule="evenodd" d="M32 14.6523L22 11L12 14.6523L13.5253 28.1934L22 33L30.4747 28.1934L32 14.6523ZM29 28L22.4888 13L16 28H18.4277L19.7367 24.6436H25.2633L26.5723 28H29ZM24.3907 22.5752H20.5869L22.4888 17.874L24.3907 22.5752Z" fill="black"/>
<rect x="1" y="1" width="43" height="58" rx="2" stroke="black" stroke-width="2"/>
<path fill-rule="evenodd" clip-rule="evenodd" d="M43 41H2V58H43V41ZM18.3228 48.5986C18.3922 48.7051 18.4462 48.8281 18.4845 48.9668H19.6912C19.6528 48.6777 19.5659 48.4141 19.4307 48.1748C19.2954 47.9326 19.1207 47.7246 18.9069 47.5498C18.7612 47.4297 18.601 47.3281 18.426 47.2461L18.371 47.2217L18.3273 47.2021L18.2712 47.1797L18.1774 47.1455C18.0499 47.1006 17.9177 47.0664 17.7808 47.042C17.623 47.0137 17.4591 47 17.2888 47C17.1824 47 17.0781 47.0049 16.9761 47.0156L16.9142 47.0234L16.8384 47.0342C16.7639 47.0459 16.6907 47.0615 16.6187 47.0801C16.4938 47.1113 16.3726 47.1523 16.2549 47.2021C15.9368 47.3369 15.658 47.5342 15.4185 47.792C15.179 48.0508 14.9924 48.3662 14.859 48.7383C14.7274 49.1094 14.6616 49.5312 14.6616 50.0039C14.6616 50.6201 14.7722 51.1523 14.9934 51.6006C15.0759 51.7656 15.1705 51.917 15.277 52.0537C15.3674 52.1699 15.4666 52.2764 15.5743 52.373L15.6106 52.4053C15.651 52.4395 15.6926 52.4736 15.7355 52.5059C15.7965 52.5518 15.86 52.5947 15.9258 52.6348C16.3243 52.877 16.787 52.9971 17.3135 52.9971C17.7852 52.9971 18.2039 52.8984 18.5696 52.7012C18.9352 52.501 19.2223 52.2178 19.4307 51.8516C19.6392 51.4824 19.7433 51.042 19.7433 50.5283V49.793H17.3931V50.7227H18.5994C18.5963 50.8672 18.5756 51.001 18.5371 51.1221C18.5134 51.1963 18.4832 51.2666 18.4462 51.333C18.3456 51.5146 18.1993 51.6562 18.0073 51.7568C17.8171 51.8564 17.5878 51.9053 17.319 51.9053C17.0228 51.9053 16.7659 51.8311 16.5483 51.6836C16.3308 51.5332 16.1626 51.3154 16.0437 51.0303C15.9897 50.9004 15.948 50.7588 15.9186 50.6035C15.8832 50.418 15.8655 50.2148 15.8655 49.9932C15.8655 49.707 15.8953 49.4531 15.9546 49.2295C15.9641 49.1934 15.9745 49.1582 15.9856 49.124C16.0038 49.0674 16.024 49.0137 16.0465 48.9609C16.1671 48.6777 16.3353 48.4619 16.5511 48.3145C16.7687 48.166 17.021 48.0918 17.308 48.0918C17.3545 48.0918 17.3998 48.0938 17.4437 48.0977C17.4854 48.1006 17.5258 48.1055 17.5651 48.1123L17.6295 48.125L17.6909 48.1416L17.7277 48.1514C17.8556 48.1914 17.969 48.249 18.0676 48.3252C18.1104 48.3564 18.1503 48.3916 18.1874 48.4297C18.2166 48.459 18.2439 48.4902 18.2695 48.5234C18.2882 48.5479 18.3059 48.5723 18.3228 48.5986ZM4.27246 52.917H3L4.93896 47.0801H6.46924L8.4054 52.917H7.13281L6.71692 51.5859H4.68921L4.27246 52.917ZM5.72595 48.4141L6.41614 50.623H4.9906L5.68213 48.4141H5.72595ZM13.7792 47.0801V52.917H12.7535L10.3099 49.2432H10.2688V52.917H9.08142V47.0801H10.1235L12.5479 50.751H12.5972V47.0801H13.7792ZM24.1045 47.0801H25.292V50.8711C25.292 50.9443 25.2891 51.0156 25.2832 51.0859C25.2773 51.1572 25.2684 51.2266 25.2566 51.2949L25.2473 51.3447C25.2217 51.4736 25.1852 51.5967 25.1377 51.7129L25.0958 51.8086C25.0667 51.8701 25.0342 51.9297 24.9985 51.9883C24.9076 52.1377 24.7994 52.2725 24.6742 52.3916C24.5327 52.5264 24.3693 52.6406 24.184 52.7354C24.0616 52.7969 23.9323 52.8477 23.7957 52.8877C23.7357 52.9053 23.6744 52.9209 23.6118 52.9346C23.4099 52.9785 23.1938 53 22.9636 53C22.4974 53 22.0897 52.9121 21.7405 52.7354C21.6399 52.6836 21.5457 52.627 21.4579 52.5635C21.2412 52.4072 21.064 52.2158 20.926 51.9883C20.7322 51.6689 20.6353 51.2969 20.6353 50.8711V47.0801H21.8228V50.7656C21.8228 50.9873 21.8694 51.1855 21.9626 51.3584C22.0577 51.5312 22.1912 51.667 22.363 51.7656C22.4474 51.8145 22.5386 51.8506 22.6366 51.876C22.6937 51.8906 22.7532 51.9004 22.8151 51.9062C22.8632 51.9111 22.9127 51.9141 22.9636 51.9141C23.194 51.9141 23.3942 51.8643 23.5642 51.7656C23.7361 51.667 23.8687 51.5312 23.9619 51.3584C24.0569 51.1855 24.1045 50.9873 24.1045 50.7656V47.0801ZM26.2689 47.0801V52.917H29.8643V51.8994H27.4564V47.0801H26.2689ZM31.7621 52.917H30.4896L32.4285 47.0801H33.9587L35.8949 52.917H34.6224L34.2065 51.5859H32.1788L31.7621 52.917ZM33.2156 48.4141L33.9058 50.623H32.4802L33.1718 48.4141H33.2156ZM36.5709 47.0801V52.917H37.7584V50.8477H38.6251L39.6891 52.917H41L39.8085 50.6494L39.8591 50.626C39.9502 50.582 40.0348 50.5322 40.1129 50.4766C40.1823 50.4268 40.2466 50.373 40.3058 50.3145C40.4038 50.2178 40.488 50.1084 40.5585 49.9873C40.7194 49.708 40.7998 49.374 40.7998 48.9863C40.7998 48.6006 40.7202 48.2656 40.5612 47.9805C40.4039 47.6934 40.1746 47.4727 39.8728 47.3164C39.7981 47.2773 39.7196 47.2432 39.6372 47.2129C39.5149 47.1689 39.384 47.1367 39.2446 47.1143C39.1011 47.0908 38.9485 47.0801 38.7869 47.0801H36.5709ZM37.7584 49.8564H38.5647C38.655 49.8564 38.7393 49.8516 38.8175 49.8408C38.9354 49.8252 39.0394 49.7979 39.1296 49.7588C39.1981 49.7295 39.2585 49.6934 39.311 49.6504C39.3734 49.5996 39.4246 49.5391 39.4642 49.4688C39.5027 49.4023 39.5312 49.3281 39.5499 49.2451C39.5677 49.166 39.5767 49.0801 39.5767 48.9863C39.5767 48.9395 39.5745 48.8945 39.5701 48.8516C39.567 48.8223 39.5629 48.793 39.5577 48.7646C39.5397 48.665 39.5085 48.5752 39.4642 48.4961C39.3911 48.3633 39.2787 48.2627 39.127 48.1943C38.9769 48.124 38.7877 48.0889 38.5592 48.0889H37.7584V49.8564Z" fill="black"/>
</svg>
