<svg width="45" height="60" viewBox="0 0 45 60" fill="none" xmlns="http://www.w3.org/2000/svg">
<path d="M13 22.7462V21.4264C13.7147 21.4264 14.2104 21.2754 14.4872 20.9733C14.764 20.6713 14.9024 20.1832 14.9024 19.5091V18.0579C14.9024 17.2481 15.0077 16.6002 15.2184 16.1143C15.4333 15.6241 15.7307 15.2542 16.1108 15.0046C16.495 14.7551 16.9494 14.5888 17.4741 14.5056C17.9987 14.4224 18.5729 14.3808 19.1967 14.3808V16.4689C18.7093 16.4689 18.3375 16.5368 18.0813 16.6725C17.8293 16.8038 17.6579 17.0095 17.567 17.2897C17.4761 17.5655 17.4307 17.9157 17.4307 18.3403V20.2576C17.4307 20.5903 17.3728 20.9077 17.2572 21.2097C17.1415 21.5074 16.9267 21.7722 16.6127 22.0042C16.2987 22.2319 15.8505 22.4135 15.268 22.5492C14.6855 22.6806 13.9295 22.7462 13 22.7462ZM19.1967 31C18.5729 31 17.9987 30.9584 17.4741 30.8752C16.9494 30.7921 16.495 30.6257 16.1108 30.3762C15.7307 30.1267 15.4333 29.7568 15.2184 29.2665C15.0077 28.7806 14.9024 28.1327 14.9024 27.3229V25.8652C14.9024 25.1911 14.764 24.703 14.4872 24.4009C14.2104 24.0989 13.7147 23.9479 13 23.9479V22.628C13.9295 22.628 14.6855 22.6959 15.268 22.8316C15.8505 22.9629 16.2987 23.1446 16.6127 23.3766C16.9267 23.6042 17.1415 23.8691 17.2572 24.1711C17.3728 24.4688 17.4307 24.7861 17.4307 25.1232V27.0406C17.4307 27.4608 17.4761 27.8088 17.567 28.0846C17.6579 28.3647 17.8293 28.5705 18.0813 28.7018C18.3375 28.8375 18.7093 28.9054 19.1967 28.9054V31ZM13 23.9479V21.4264H15.2246V23.9479H13Z" fill="black"/>
<path d="M26.182 14L22.0922 30.1004H19.818L23.9078 14H26.182Z" fill="black"/>
<path d="M33 22.628V23.9479C32.2894 23.9479 31.7937 24.0989 31.5128 24.4009C31.236 24.703 31.0976 25.1911 31.0976 25.8652V27.3229C31.0976 28.1327 30.9902 28.7806 30.7754 29.2665C30.5647 29.7568 30.2672 30.1267 29.883 30.3762C29.503 30.6257 29.0506 30.7921 28.5259 30.8752C28.0054 30.9584 27.4312 31 26.8033 31V28.9054C27.2907 28.9054 27.6605 28.8375 27.9125 28.7018C28.1686 28.5705 28.3421 28.3647 28.433 28.0846C28.5239 27.8088 28.5693 27.4608 28.5693 27.0406V25.1232C28.5693 24.7861 28.6272 24.4688 28.7428 24.1711C28.8585 23.8691 29.0733 23.6042 29.3873 23.3766C29.7013 23.1446 30.1495 22.9629 30.732 22.8316C31.3145 22.6959 32.0705 22.628 33 22.628ZM26.8033 14.3808C27.4312 14.3808 28.0054 14.4224 28.5259 14.5056C29.0506 14.5888 29.503 14.7551 29.883 15.0046C30.2672 15.2542 30.5647 15.6241 30.7754 16.1143C30.9902 16.6002 31.0976 17.2481 31.0976 18.0579V19.5091C31.0976 20.1832 31.236 20.6713 31.5128 20.9733C31.7937 21.2754 32.2894 21.4264 33 21.4264V22.7462C32.0705 22.7462 31.3145 22.6806 30.732 22.5492C30.1495 22.4135 29.7013 22.2319 29.3873 22.0042C29.0733 21.7722 28.8585 21.5074 28.7428 21.2097C28.6272 20.9077 28.5693 20.5903 28.5693 20.2576V18.3403C28.5693 17.9157 28.5239 17.5655 28.433 17.2897C28.3421 17.0095 28.1686 16.8038 27.9125 16.6725C27.6605 16.5368 27.2907 16.4689 26.8033 16.4689V14.3808ZM33 21.4264V23.9479H30.7754V21.4264H33Z" fill="black"/>
<rect x="1" y="1" width="43" height="58" rx="2" stroke="black" stroke-width="2"/>
<path fill-rule="evenodd" clip-rule="evenodd" d="M43 41H2V58H43V41ZM20.3105 49.123H19.0485C19.0254 48.9619 18.9783 48.8184 18.9072 48.6934C18.8362 48.5654 18.7449 48.457 18.6335 48.3682C18.5221 48.2793 18.3934 48.2109 18.2474 48.1631C18.1033 48.1152 17.9468 48.0918 17.7777 48.0918C17.4723 48.0918 17.2062 48.167 16.9796 48.3164C16.9403 48.3418 16.9025 48.3701 16.8662 48.3994C16.8036 48.4512 16.7456 48.5088 16.6921 48.5732C16.598 48.6855 16.5181 48.8164 16.4523 48.9668C16.3274 49.25 16.265 49.5938 16.265 49.999C16.265 50.0674 16.2667 50.1338 16.27 50.1992C16.2729 50.2559 16.2772 50.3115 16.2828 50.3662C16.2886 50.4219 16.2958 50.4766 16.3042 50.5293C16.3352 50.7217 16.3845 50.8945 16.4523 51.0479C16.579 51.3311 16.7557 51.5439 16.9824 51.6885C17.0309 51.7197 17.0811 51.7471 17.1328 51.7715L17.179 51.792L17.254 51.8213C17.4119 51.877 17.5836 51.9053 17.769 51.9053C17.8171 51.9053 17.8643 51.9033 17.9104 51.8994C17.9609 51.8955 18.0103 51.8896 18.0583 51.8818C18.1185 51.8711 18.1768 51.8574 18.233 51.8398C18.3771 51.7959 18.5048 51.7324 18.6162 51.6494C18.653 51.6211 18.6877 51.5908 18.7203 51.5586L18.7599 51.5176L18.7985 51.4727L18.8352 51.4248C18.8556 51.3975 18.8748 51.3682 18.8928 51.3379C18.9678 51.2168 19.0197 51.0781 19.0485 50.9219L20.3105 50.9277C20.2778 51.1953 20.1962 51.4541 20.0656 51.7031C19.9369 51.9502 19.7631 52.1719 19.5441 52.3672C19.4944 52.4121 19.4425 52.4541 19.3883 52.4941C19.3475 52.5244 19.3054 52.5537 19.2621 52.582C19.1969 52.624 19.1288 52.6631 19.0579 52.6992C18.9655 52.7471 18.8682 52.79 18.7661 52.8291C18.4664 52.9414 18.1273 52.9971 17.7489 52.9971C17.2225 52.9971 16.752 52.8789 16.337 52.6436C15.924 52.4082 15.5974 52.0674 15.3573 51.6201C15.2098 51.3438 15.108 51.0312 15.0519 50.6826C15.0359 50.584 15.0237 50.4824 15.015 50.3779C15.005 50.2549 15 50.1289 15 49.999C15 49.3623 15.121 48.8203 15.363 48.374C15.6051 47.9277 15.9336 47.5869 16.3485 47.3535C16.7634 47.1182 17.2302 47 17.7489 47C18.0908 47 18.4078 47.0479 18.6998 47.1426C18.8644 47.1953 19.0184 47.2627 19.162 47.3438C19.2748 47.4072 19.381 47.4785 19.4807 47.5586C19.7074 47.7393 19.8917 47.9609 20.0339 48.2227L20.0638 48.2783L20.0823 48.3164C20.1027 48.3584 20.1218 48.4014 20.1396 48.4443C20.2241 48.6504 20.2811 48.877 20.3105 49.123ZM24.2939 48.417C24.2467 48.3428 24.1853 48.2783 24.1097 48.2227C24.0532 48.1816 23.9901 48.1475 23.9205 48.1201C23.8872 48.1064 23.8524 48.0947 23.816 48.084C23.7482 48.0654 23.675 48.0518 23.5967 48.043C23.5338 48.0361 23.4675 48.0322 23.3979 48.0322C23.1943 48.0322 23.0225 48.0605 22.8822 48.1172C22.8533 48.1289 22.8258 48.1416 22.7997 48.1543C22.7677 48.1709 22.7378 48.1885 22.71 48.207C22.6857 48.2236 22.663 48.2412 22.6418 48.2598C22.6111 48.2871 22.5836 48.3164 22.5594 48.3486C22.545 48.3682 22.5321 48.3887 22.5205 48.4092C22.5067 48.4326 22.4949 48.458 22.4851 48.4844C22.4703 48.5234 22.4602 48.5645 22.4547 48.6074C22.4515 48.6328 22.45 48.6582 22.45 48.6846C22.4481 48.7344 22.4521 48.7812 22.462 48.8242C22.473 48.8721 22.4911 48.917 22.5162 48.958C22.5663 49.0361 22.6344 49.1035 22.7208 49.1602L22.7902 49.2021L22.8519 49.2344C22.9044 49.2598 22.9606 49.2832 23.0205 49.3057C23.0837 49.3281 23.1493 49.3486 23.2172 49.3672L23.318 49.3936L23.3835 49.4082L23.9138 49.5342C24.1711 49.5908 24.4075 49.667 24.6227 49.7617C24.8378 49.8574 25.024 49.9736 25.1816 50.1123C25.3391 50.251 25.4612 50.415 25.5476 50.6025C25.636 50.791 25.681 51.0068 25.683 51.25C25.681 51.6074 25.5889 51.917 25.4064 52.1787C25.3638 52.2402 25.3167 52.2988 25.265 52.3535C25.1923 52.4307 25.1107 52.502 25.0201 52.5664C24.9026 52.6504 24.7701 52.7236 24.6227 52.7861C24.2826 52.9287 23.8724 53 23.3922 53C22.9159 53 22.5009 52.9277 22.1475 52.7832C21.7959 52.6387 21.5212 52.4248 21.3234 52.1416C21.1274 51.8574 21.0247 51.5049 21.015 51.085H22.2224C22.2358 51.2803 22.2925 51.4434 22.3923 51.5752C22.4941 51.7041 22.6296 51.8018 22.7987 51.8682C22.9696 51.9326 23.1627 51.9648 23.3778 51.9648C23.5052 51.9648 23.6227 51.9541 23.7299 51.9316C23.8004 51.917 23.8665 51.8984 23.9282 51.874C24.0857 51.8135 24.2076 51.7285 24.2942 51.6201C24.3806 51.5117 24.4238 51.3877 24.4238 51.2471C24.4238 51.1162 24.3844 51.0059 24.3057 50.916C24.2289 50.8271 24.1155 50.751 23.9657 50.6885C23.8177 50.626 23.6362 50.5684 23.421 50.5176L22.7784 50.3574C22.281 50.2383 21.8881 50.0508 21.6 49.7959C21.3118 49.542 21.1687 49.1982 21.1707 48.7676C21.1687 48.4141 21.2638 48.1055 21.4559 47.8408C21.5773 47.6758 21.7267 47.5332 21.9044 47.4131C21.9463 47.3848 21.9897 47.3574 22.0348 47.332C22.1042 47.293 22.1772 47.2568 22.254 47.2227C22.5922 47.0742 22.9763 47 23.4066 47C23.8446 47 24.2269 47.0742 24.5535 47.2227C24.7074 47.292 24.8453 47.374 24.9673 47.4688C25.0826 47.5586 25.1837 47.6602 25.2703 47.7725L25.3199 47.8408C25.5024 48.1055 25.5966 48.4111 25.6023 48.7588H24.4065C24.4031 48.7246 24.3979 48.6914 24.3911 48.6592L24.3749 48.5957C24.3555 48.5312 24.3285 48.4717 24.2939 48.417ZM29.6766 48.5498C29.6887 48.583 29.6986 48.6172 29.7065 48.6523C29.7141 48.6865 29.7198 48.7217 29.7235 48.7588H30.9193C30.9136 48.4111 30.8195 48.1055 30.637 47.8408C30.4545 47.5771 30.199 47.3701 29.8705 47.2227C29.8025 47.1914 29.7322 47.1641 29.6594 47.1396C29.589 47.1162 29.5164 47.0957 29.4415 47.0781C29.2217 47.0264 28.9823 47 28.7236 47C28.2933 47 27.9092 47.0742 27.571 47.2227C27.233 47.3701 26.9669 47.5771 26.7729 47.8408C26.5808 48.1055 26.4857 48.4141 26.4877 48.7676C26.4857 49.1982 26.6288 49.542 26.917 49.7959C27.2051 50.0508 27.598 50.2383 28.0955 50.3574L28.738 50.5176C28.9532 50.5684 29.1348 50.626 29.2826 50.6885C29.3516 50.7168 29.4128 50.749 29.4663 50.7832C29.5291 50.8242 29.5812 50.8682 29.6227 50.916C29.7014 51.0059 29.7408 51.1162 29.7408 51.2471C29.7408 51.2812 29.7384 51.3135 29.7334 51.3457C29.7288 51.375 29.722 51.4033 29.7133 51.4307C29.6918 51.499 29.6577 51.5615 29.6111 51.6201C29.5793 51.6602 29.5428 51.6963 29.5015 51.7305C29.4303 51.7881 29.3448 51.8359 29.2452 51.874C29.0896 51.9346 28.9061 51.9648 28.6948 51.9648C28.5312 51.9648 28.3804 51.9463 28.2423 51.9092C28.1989 51.8975 28.1566 51.8838 28.1157 51.8682C27.9467 51.8018 27.8112 51.7041 27.7094 51.5752C27.6095 51.4434 27.5529 51.2803 27.5394 51.085H26.332C26.3417 51.5049 26.4445 51.8574 26.6404 52.1416C26.8383 52.4248 27.1129 52.6387 27.4645 52.7832C27.8179 52.9277 28.2328 53 28.7092 53C29.1895 53 29.5996 52.9287 29.9396 52.7861C30.2816 52.6416 30.5428 52.4395 30.7234 52.1787C30.9059 51.917 30.998 51.6074 31 51.25C30.998 51.0068 30.9529 50.791 30.8646 50.6025C30.8169 50.499 30.7584 50.4023 30.6892 50.3145C30.6328 50.2422 30.5693 50.1748 30.4987 50.1123C30.3411 49.9736 30.1548 49.8574 29.9396 49.7617C29.7245 49.667 29.4882 49.5908 29.2308 49.5342L28.7006 49.4082C28.6432 49.3955 28.5874 49.3818 28.5331 49.3672C28.4901 49.3555 28.448 49.3428 28.407 49.3291L28.3375 49.3057C28.2242 49.2637 28.1243 49.2158 28.0378 49.1602C27.9514 49.1035 27.8832 49.0361 27.8333 48.958C27.7853 48.8799 27.7632 48.7891 27.767 48.6846C27.767 48.5596 27.8035 48.4473 27.8765 48.3486C27.9514 48.249 28.059 48.1729 28.1992 48.1172C28.2858 48.082 28.3844 48.0576 28.4951 48.0439C28.5637 48.0361 28.6371 48.0322 28.715 48.0322C29.0146 48.0322 29.252 48.0957 29.4268 48.2227C29.5444 48.3086 29.6277 48.418 29.6766 48.5498Z" fill="black"/>
</svg>
