<svg width="45" height="60" viewBox="0 0 45 60" fill="none" xmlns="http://www.w3.org/2000/svg">
<path d="M10 23.5701V21.5604L18.2838 18.0204V20.3328L12.6122 22.5424L12.6887 22.4225V22.708L12.6122 22.5881L18.2838 24.7977V27.1101L10 23.5701Z" fill="black"/>
<path d="M26.0204 15L22.1374 29H19.9782L23.8612 15H26.0204Z" fill="black"/>
<path d="M36 23.5701L27.7162 27.1101V24.7977L33.3878 22.5881L33.3113 22.708V22.4225L33.3878 22.5424L27.7162 20.3328V18.0204L36 21.5604V23.5701Z" fill="black"/>
<rect x="1" y="1" width="43" height="58" rx="2" stroke="black" stroke-width="2"/>
<path fill-rule="evenodd" clip-rule="evenodd" d="M43 41H2V58H43V41ZM12 47V53H13.2104V50.5215H15.6677V53H16.8754V47H15.6677V49.4756H13.2104V47H12ZM17.6553 47V48.0459H19.4081V53H20.6046V48.0459H22.3574V47H17.6553ZM23.1317 47H24.6245L26.2012 51.0312H26.2683L27.845 47H29.3378V53H28.1637V49.0947H28.1161L26.6345 52.9707H25.835L24.3534 49.0801H24.3059V53H23.1317V47ZM30.3351 47V53H34V51.9541H31.5455V47H30.3351Z" fill="black"/>
</svg>
