<svg width="45" height="60" viewBox="0 0 45 60" fill="none" xmlns="http://www.w3.org/2000/svg">
<path d="M15 22.5571V21.207C15.8121 21.207 16.3754 21.0525 16.6899 20.7436C17.0045 20.4346 17.1617 19.9353 17.1617 19.2458V17.7614C17.1617 16.933 17.2814 16.2702 17.5208 15.7732C17.7649 15.2717 18.1029 14.8933 18.5348 14.6381C18.9714 14.3829 19.4877 14.2127 20.0839 14.1276C20.6801 14.0425 21.3326 14 22.0414 14V16.1359C21.4875 16.1359 21.065 16.2053 20.774 16.3441C20.4876 16.4785 20.2928 16.6889 20.1895 16.9755C20.0863 17.2576 20.0346 17.6158 20.0346 18.0502V20.0115C20.0346 20.3518 19.9689 20.6764 19.8375 20.9854C19.706 21.2899 19.4619 21.5608 19.1052 21.7981C18.7484 22.0309 18.2391 22.2168 17.5772 22.3556C16.9153 22.4899 16.0562 22.5571 15 22.5571ZM22.0414 31C21.3326 31 20.6801 30.9575 20.0839 30.8724C19.4877 30.7873 18.9714 30.6171 18.5348 30.3619C18.1029 30.1067 17.7649 29.7283 17.5208 29.2268C17.2814 28.7298 17.1617 28.067 17.1617 27.2386V25.7475C17.1617 25.0579 17.0045 24.5587 16.6899 24.2497C16.3754 23.9407 15.8121 23.7862 15 23.7862V22.4362C16.0562 22.4362 16.9153 22.5056 17.5772 22.6444C18.2391 22.7787 18.7484 22.9646 19.1052 23.2019C19.4619 23.4347 19.706 23.7056 19.8375 24.0146C19.9689 24.3191 20.0346 24.6438 20.0346 24.9885V26.9498C20.0346 27.3797 20.0863 27.7357 20.1895 28.0178C20.2928 28.3044 20.4876 28.5148 20.774 28.6491C21.065 28.788 21.4875 28.8574 22.0414 28.8574V31ZM15 23.7862V21.207H17.5279V23.7862H15Z" fill="black"/>
<path d="M30 22.4362V23.7862C29.1926 23.7862 28.6293 23.9407 28.3101 24.2497C27.9955 24.5587 27.8383 25.0579 27.8383 25.7475V27.2386C27.8383 28.067 27.7162 28.7298 27.4721 29.2268C27.2327 29.7283 26.8947 30.1067 26.4582 30.3619C26.0263 30.6171 25.5123 30.7873 24.9161 30.8724C24.3246 30.9575 23.6721 31 22.9586 31V28.8574C23.5125 28.8574 23.9326 28.788 24.219 28.6491C24.51 28.5148 24.7072 28.3044 24.8105 28.0178C24.9137 27.7357 24.9654 27.3797 24.9654 26.9498V24.9885C24.9654 24.6438 25.0311 24.3191 25.1625 24.0146C25.294 23.7056 25.5381 23.4347 25.8948 23.2019C26.2516 22.9646 26.7609 22.7787 27.4228 22.6444C28.0847 22.5056 28.9438 22.4362 30 22.4362ZM22.9586 14C23.6721 14 24.3246 14.0425 24.9161 14.1276C25.5123 14.2127 26.0263 14.3829 26.4582 14.6381C26.8947 14.8933 27.2327 15.2717 27.4721 15.7732C27.7162 16.2702 27.8383 16.933 27.8383 17.7614V19.2458C27.8383 19.9353 27.9955 20.4346 28.3101 20.7436C28.6293 21.0525 29.1926 21.207 30 21.207V22.5571C28.9438 22.5571 28.0847 22.4899 27.4228 22.3556C26.7609 22.2168 26.2516 22.0309 25.8948 21.7981C25.5381 21.5608 25.294 21.2899 25.1625 20.9854C25.0311 20.6764 24.9654 20.3518 24.9654 20.0115V18.0502C24.9654 17.6158 24.9137 17.2576 24.8105 16.9755C24.7072 16.6889 24.51 16.4785 24.219 16.3441C23.9326 16.2053 23.5125 16.1359 22.9586 16.1359V14ZM30 21.207V23.7862H27.4721V21.207H30Z" fill="black"/>
<rect x="1" y="1" width="43" height="58" rx="2" stroke="black" stroke-width="2"/>
<path fill-rule="evenodd" clip-rule="evenodd" d="M43 41H2V58H43V41ZM25.4982 48.2227C25.665 48.3506 25.7595 48.5283 25.7815 48.7588H26.923C26.9175 48.4111 26.8276 48.1055 26.6534 47.8408C26.4792 47.5771 26.2354 47.3701 25.9218 47.2227C25.61 47.0742 25.2451 47 24.827 47C24.6998 47 24.5768 47.0068 24.4581 47.0215C24.3651 47.0322 24.2747 47.0479 24.1868 47.0674C24.1207 47.082 24.0563 47.0996 23.9932 47.1201C23.9012 47.1494 23.8125 47.1836 23.7268 47.2227C23.4041 47.3701 23.15 47.5771 22.9648 47.8408C22.7815 48.1055 22.6907 48.4141 22.6925 48.7676C22.6915 48.9961 22.7296 49.2002 22.8069 49.3799C22.875 49.5381 22.9735 49.6768 23.1024 49.7959C23.3774 50.0508 23.7524 50.2383 24.2274 50.3574L24.8408 50.5176C25.0461 50.5684 25.2195 50.626 25.3606 50.6885C25.4299 50.7188 25.4911 50.752 25.5441 50.7891C25.6003 50.8281 25.6473 50.8701 25.6852 50.916C25.7604 51.0059 25.798 51.1162 25.798 51.2471C25.798 51.3018 25.7919 51.3535 25.7798 51.4023C25.7697 51.4434 25.7551 51.4824 25.7365 51.5205C25.7267 51.54 25.7158 51.5586 25.7037 51.5771L25.6742 51.6201C25.6263 51.6826 25.5671 51.7373 25.4965 51.7842C25.4453 51.8184 25.3881 51.8486 25.3248 51.874C25.1764 51.9346 25.0012 51.9648 24.7996 51.9648C24.5941 51.9648 24.4099 51.9326 24.2467 51.8682C24.1742 51.8379 24.1082 51.8018 24.0486 51.7598C24.0065 51.7295 23.9675 51.6973 23.932 51.6602C23.9059 51.6338 23.8815 51.6055 23.8588 51.5752C23.8173 51.5176 23.7836 51.4541 23.7577 51.3848C23.7388 51.334 23.7241 51.2803 23.7135 51.2236C23.7053 51.1797 23.6997 51.1328 23.6965 51.085H22.5441C22.5532 51.5049 22.6512 51.8574 22.8384 52.1416C22.8961 52.2285 22.9607 52.3086 23.0321 52.3818C23.0604 52.4102 23.0897 52.4385 23.1201 52.4658C23.2643 52.5947 23.4326 52.7002 23.625 52.7832C23.9624 52.9277 24.3585 53 24.8132 53C25.2717 53 25.6632 52.9287 25.9878 52.7861C26.3142 52.6416 26.5636 52.4395 26.736 52.1787C26.8634 51.9873 26.9446 51.7705 26.9799 51.5273C26.9928 51.4385 26.9995 51.3457 27 51.25C26.9996 51.2041 26.9979 51.1602 26.9946 51.1162C26.9905 51.0596 26.9839 51.0049 26.9747 50.9512C26.9534 50.8262 26.9187 50.71 26.8707 50.6025L26.8629 50.585C26.8357 50.5244 26.8049 50.4668 26.7706 50.4121C26.7507 50.3809 26.7296 50.3496 26.7073 50.3193C26.681 50.2842 26.6532 50.25 26.6237 50.2168C26.5914 50.1797 26.5574 50.1455 26.5214 50.1123C26.371 49.9736 26.1931 49.8574 25.9878 49.7617C25.7823 49.667 25.5569 49.5908 25.3112 49.5342L24.8051 49.4082C24.6821 49.3799 24.5667 49.3457 24.4585 49.3057C24.4059 49.2852 24.3563 49.2637 24.3098 49.2402C24.2605 49.2148 24.2147 49.1885 24.1724 49.1602C24.1221 49.126 24.0782 49.0869 24.0408 49.0449C24.0168 49.0176 23.9956 48.9883 23.9771 48.958C23.9313 48.8799 23.9102 48.7891 23.9138 48.6846C23.9138 48.6094 23.9265 48.5381 23.952 48.4717C23.9686 48.4287 23.9907 48.3877 24.0183 48.3486C24.0898 48.249 24.1925 48.1729 24.3264 48.1172C24.3541 48.1055 24.3831 48.0947 24.4133 48.085L24.4701 48.0693L24.5288 48.0576C24.5643 48.0508 24.6014 48.0449 24.6399 48.041C24.6964 48.0352 24.756 48.0322 24.8187 48.0322C24.9453 48.0322 25.0603 48.0449 25.1636 48.0703C25.2477 48.0908 25.3241 48.1191 25.3927 48.1562C25.4302 48.1758 25.4653 48.1982 25.4982 48.2227ZM21.7408 47.0801H20.5636V51.1504C20.5636 51.3359 20.537 51.4932 20.4839 51.6201C20.4307 51.748 20.3527 51.8447 20.25 51.9111C20.1492 51.9756 20.0254 52.0078 19.8787 52.0078C19.7394 52.0078 19.6183 51.9795 19.5156 51.9229C19.46 51.8896 19.4108 51.8496 19.3679 51.8018C19.3331 51.7637 19.3026 51.7207 19.2762 51.6719C19.2195 51.5615 19.1892 51.4297 19.1855 51.2754H18C17.9982 51.6631 18.078 51.9854 18.2394 52.2422C18.4008 52.4961 18.6189 52.6865 18.8939 52.8115C19.1709 52.9355 19.4789 52.9971 19.8182 52.9971C20.1996 52.9971 20.5343 52.9219 20.8221 52.7715C21.11 52.6221 21.3347 52.4082 21.4961 52.1309C21.6593 51.8535 21.7408 51.5264 21.7408 51.1504V47.0801Z" fill="black"/>
</svg>
