<svg width="45" height="60" viewBox="0 0 45 60" fill="none" xmlns="http://www.w3.org/2000/svg">
<path d="M23 23.9102C24.1046 23.9102 25 23.0147 25 21.9102C25 20.8056 24.1046 19.9102 23 19.9102C21.8954 19.9102 21 20.8056 21 21.9102C21 23.0147 21.8954 23.9102 23 23.9102Z" fill="black"/>
<path d="M23 26.4102C28.5228 26.4102 33 24.3954 33 21.9102C33 19.4249 28.5228 17.4102 23 17.4102C17.4772 17.4102 13 19.4249 13 21.9102C13 24.3954 17.4772 26.4102 23 26.4102Z" stroke="black"/>
<path d="M19.1029 24.1603C21.8643 28.9432 25.8477 31.8131 28 30.5705C30.1523 29.3279 29.6585 24.4432 26.8971 19.6603C24.1357 14.8773 20.1523 12.0074 18 13.25C15.8477 14.4926 16.3414 19.3773 19.1029 24.1603Z" stroke="black"/>
<path d="M19.1029 19.6603C16.3414 24.4432 15.8477 29.3279 18 30.5705C20.1523 31.8131 24.1357 28.9432 26.8971 24.1603C29.6585 19.3773 30.1523 14.4926 28 13.25C25.8477 12.0074 21.8643 14.8773 19.1029 19.6603Z" stroke="black"/>
<rect x="1" y="1" width="43" height="58" rx="2" stroke="black" stroke-width="2"/>
<path fill-rule="evenodd" clip-rule="evenodd" d="M43 41H2V58H43V41ZM29.8557 49.1245H28.6788C28.6573 48.9629 28.6134 48.8194 28.5471 48.6939C28.4809 48.5665 28.3958 48.4582 28.2919 48.3688C28.188 48.2795 28.068 48.211 27.9318 48.1635C27.7975 48.116 27.6515 48.0922 27.4938 48.0922C27.209 48.0922 26.9609 48.1673 26.7495 48.3175C26.5381 48.4658 26.3742 48.6825 26.2578 48.9677C26.1414 49.2509 26.0831 49.5951 26.0831 50C26.0831 50.4164 26.1414 50.7662 26.2578 51.0494C26.376 51.3327 26.5408 51.5466 26.7522 51.6911C26.9636 51.8356 27.2081 51.9078 27.4858 51.9078C27.6416 51.9078 27.7858 51.8859 27.9184 51.8422C28.0527 51.7985 28.1718 51.7348 28.2757 51.6511C28.3796 51.5656 28.4656 51.462 28.5337 51.3403C28.6036 51.2186 28.6519 51.0798 28.6788 50.924L29.8557 50.9297C29.8253 51.1977 29.7491 51.4563 29.6273 51.7053C29.5073 51.9525 29.3452 52.174 29.141 52.3698C28.9385 52.5637 28.6967 52.7177 28.4155 52.8317C28.136 52.9439 27.8198 53 27.467 53C26.9761 53 26.5373 52.8821 26.1503 52.6464C25.7652 52.4106 25.4606 52.0694 25.2367 51.6226C25.0146 51.1759 24.9035 50.635 24.9035 50C24.9035 49.3631 25.0164 48.8213 25.2421 48.3745C25.4678 47.9278 25.7741 47.5875 26.1611 47.3536C26.548 47.1179 26.9833 47 27.467 47C27.7858 47 28.0814 47.0475 28.3537 47.1426C28.6277 47.2376 28.8705 47.3764 29.0819 47.5589C29.2932 47.7395 29.4652 47.961 29.5978 48.2234C29.7321 48.4857 29.8181 48.7861 29.8557 49.1245ZM10 52.9202V47.0798H12.1711C12.5867 47.0798 12.9414 47.1587 13.2352 47.3165C13.5307 47.4724 13.7556 47.6939 13.9096 47.981C14.0655 48.2662 14.1434 48.6017 14.1434 48.9876C14.1434 49.3755 14.0646 49.7091 13.9069 49.9886C13.7493 50.2662 13.5209 50.4791 13.2217 50.6274C13.2053 50.6356 13.1887 50.6435 13.172 50.6512L14.3395 52.9202H13.0551L12.0128 50.8498H11.1635V52.9202H10ZM11.9535 49.8574H11.1635V48.0894H11.9481C12.172 48.0894 12.3574 48.1245 12.5043 48.1949C12.653 48.2633 12.7632 48.3641 12.8348 48.4971C12.9083 48.6302 12.945 48.7937 12.945 48.9876C12.945 49.1797 12.9083 49.3403 12.8348 49.4696C12.7632 49.5989 12.6539 49.6958 12.507 49.7605C12.3601 49.8251 12.1756 49.8574 11.9535 49.8574ZM14.9656 52.9202V47.0798H18.6737V48.0979H16.1291V49.4895H18.4829V50.5076H16.1291V51.9021H18.6844V52.9202H14.9656ZM19.3004 52.9202H20.5472L20.9554 51.5884H22.9424L23.3498 52.9202H24.5965L22.6995 47.0798H21.2002L19.3004 52.9202ZM22.6475 50.6245L21.9713 48.4144H21.9283L21.2509 50.6245H22.6475ZM30.4804 47.0798V48.0979H32.1652V52.9202H33.3152V48.0979H35V47.0798H30.4804Z" fill="black"/>
</svg>
