<svg width="45" height="60" viewBox="0 0 45 60" fill="none" xmlns="http://www.w3.org/2000/svg">
<path d="M13 22.7462V21.4264C13.7147 21.4264 14.2104 21.2754 14.4872 20.9733C14.764 20.6713 14.9024 20.1832 14.9024 19.5091V18.0579C14.9024 17.2481 15.0077 16.6002 15.2184 16.1143C15.4333 15.6241 15.7307 15.2542 16.1108 15.0046C16.495 14.7551 16.9494 14.5888 17.4741 14.5056C17.9987 14.4224 18.5729 14.3808 19.1967 14.3808V16.4689C18.7093 16.4689 18.3375 16.5368 18.0813 16.6725C17.8293 16.8038 17.6579 17.0095 17.567 17.2897C17.4761 17.5655 17.4307 17.9157 17.4307 18.3403V20.2576C17.4307 20.5903 17.3728 20.9077 17.2572 21.2097C17.1415 21.5074 16.9267 21.7722 16.6127 22.0042C16.2987 22.2319 15.8505 22.4135 15.268 22.5492C14.6855 22.6806 13.9295 22.7462 13 22.7462ZM19.1967 31C18.5729 31 17.9987 30.9584 17.4741 30.8752C16.9494 30.7921 16.495 30.6257 16.1108 30.3762C15.7307 30.1267 15.4333 29.7568 15.2184 29.2665C15.0077 28.7806 14.9024 28.1327 14.9024 27.3229V25.8652C14.9024 25.1911 14.764 24.703 14.4872 24.4009C14.2104 24.0989 13.7147 23.9479 13 23.9479V22.628C13.9295 22.628 14.6855 22.6959 15.268 22.8316C15.8505 22.9629 16.2987 23.1446 16.6127 23.3766C16.9267 23.6042 17.1415 23.8691 17.2572 24.1711C17.3728 24.4688 17.4307 24.7861 17.4307 25.1232V27.0406C17.4307 27.4608 17.4761 27.8088 17.567 28.0846C17.6579 28.3647 17.8293 28.5705 18.0813 28.7018C18.3375 28.8375 18.7093 28.9054 19.1967 28.9054V31ZM13 23.9479V21.4264H15.2246V23.9479H13Z" fill="black"/>
<path d="M26.182 14L22.0922 30.1004H19.818L23.9078 14H26.182Z" fill="black"/>
<path d="M33 22.628V23.9479C32.2894 23.9479 31.7937 24.0989 31.5128 24.4009C31.236 24.703 31.0976 25.1911 31.0976 25.8652V27.3229C31.0976 28.1327 30.9902 28.7806 30.7754 29.2665C30.5647 29.7568 30.2672 30.1267 29.883 30.3762C29.503 30.6257 29.0506 30.7921 28.5259 30.8752C28.0054 30.9584 27.4312 31 26.8033 31V28.9054C27.2907 28.9054 27.6605 28.8375 27.9125 28.7018C28.1686 28.5705 28.3421 28.3647 28.433 28.0846C28.5239 27.8088 28.5693 27.4608 28.5693 27.0406V25.1232C28.5693 24.7861 28.6272 24.4688 28.7428 24.1711C28.8585 23.8691 29.0733 23.6042 29.3873 23.3766C29.7013 23.1446 30.1495 22.9629 30.732 22.8316C31.3145 22.6959 32.0705 22.628 33 22.628ZM26.8033 14.3808C27.4312 14.3808 28.0054 14.4224 28.5259 14.5056C29.0506 14.5888 29.503 14.7551 29.883 15.0046C30.2672 15.2542 30.5647 15.6241 30.7754 16.1143C30.9902 16.6002 31.0976 17.2481 31.0976 18.0579V19.5091C31.0976 20.1832 31.236 20.6713 31.5128 20.9733C31.7937 21.2754 32.2894 21.4264 33 21.4264V22.7462C32.0705 22.7462 31.3145 22.6806 30.732 22.5492C30.1495 22.4135 29.7013 22.2319 29.3873 22.0042C29.0733 21.7722 28.8585 21.5074 28.7428 21.2097C28.6272 20.9077 28.5693 20.5903 28.5693 20.2576V18.3403C28.5693 17.9157 28.5239 17.5655 28.433 17.2897C28.3421 17.0095 28.1686 16.8038 27.9125 16.6725C27.6605 16.5368 27.2907 16.4689 26.8033 16.4689V14.3808ZM33 21.4264V23.9479H30.7754V21.4264H33Z" fill="black"/>
<rect x="1" y="1" width="43" height="58" rx="2" stroke="black" stroke-width="2"/>
<path fill-rule="evenodd" clip-rule="evenodd" d="M43 41H2V58H43V41ZM15.933 48.2228C16.0987 48.3501 16.1925 48.5287 16.2143 48.7587H17.3476C17.3422 48.4109 17.253 48.105 17.08 47.8409C16.9071 47.5767 16.6649 47.3705 16.3536 47.2223C16.0441 47.0741 15.6818 47 15.2667 47C14.8589 47 14.4947 47.0741 14.1743 47.2223C13.8539 47.3705 13.6017 47.5767 13.4178 47.8409C13.2358 48.105 13.1457 48.4138 13.1475 48.7672C13.1457 49.1986 13.2813 49.5416 13.5544 49.7962C13.8275 50.0508 14.1998 50.238 14.6713 50.3577L15.2803 50.5173C15.4842 50.5686 15.6563 50.6257 15.7965 50.6884C15.9385 50.7511 16.0459 50.8271 16.1187 50.9164C16.1934 51.0057 16.2307 51.1159 16.2307 51.247C16.2307 51.3876 16.1897 51.5121 16.1078 51.6204C16.0259 51.7287 15.9103 51.8133 15.761 51.8741C15.6135 51.9349 15.4396 51.9653 15.2394 51.9653C15.0355 51.9653 14.8525 51.933 14.6905 51.8684C14.5302 51.8019 14.4019 51.704 14.3054 51.5748C14.2107 51.4437 14.157 51.2803 14.1443 51.0846H13C13.0091 51.5045 13.1065 51.857 13.2922 52.142C13.4797 52.4252 13.7401 52.639 14.0733 52.7834C14.4083 52.9278 14.8015 53 15.253 53C15.7082 53 16.0969 52.9287 16.4191 52.7862C16.7432 52.6418 16.9908 52.4394 17.1619 52.1791C17.3349 51.9169 17.4223 51.6071 17.4241 51.2499C17.4223 51.0067 17.3795 50.791 17.2958 50.6029C17.2138 50.4147 17.0982 50.2513 16.9489 50.1126C16.7996 49.9739 16.623 49.857 16.4191 49.762C16.2152 49.667 15.9913 49.591 15.7473 49.534L15.2448 49.4086C15.1228 49.38 15.0082 49.3458 14.9007 49.3059C14.7933 49.2641 14.6986 49.2157 14.6167 49.1606C14.5348 49.1036 14.4702 49.0361 14.4228 48.9582C14.3773 48.8803 14.3564 48.7891 14.36 48.6846C14.36 48.5591 14.3946 48.447 14.4638 48.3482C14.5348 48.2494 14.6367 48.1724 14.7697 48.1173C14.9026 48.0603 15.0655 48.0318 15.2585 48.0318C15.5425 48.0318 15.7674 48.0955 15.933 48.2228ZM17.7887 52.9173H19.0558L19.4707 51.5862H21.4901L21.9042 52.9173H23.1714L21.2433 47.0798H19.7195L17.7887 52.9173ZM21.1904 50.6228L20.5033 48.4138H20.4596L19.771 50.6228H21.1904ZM26.7509 48.7587C26.7291 48.5287 26.6353 48.3501 26.4697 48.2228C26.304 48.0955 26.0791 48.0318 25.7951 48.0318C25.6021 48.0318 25.4392 48.0603 25.3063 48.1173C25.1734 48.1724 25.0714 48.2494 25.0004 48.3482C24.9312 48.447 24.8966 48.5591 24.8966 48.6846C24.893 48.7891 24.9139 48.8803 24.9594 48.9582C25.0068 49.0361 25.0714 49.1036 25.1533 49.1606C25.2353 49.2157 25.3299 49.2641 25.4374 49.3059C25.5448 49.3458 25.6595 49.38 25.7815 49.4086L26.2839 49.534C26.5279 49.591 26.7518 49.667 26.9558 49.762C27.1597 49.857 27.3363 49.9739 27.4856 50.1126C27.6348 50.2513 27.7505 50.4147 27.8324 50.6029C27.9161 50.791 27.9589 51.0067 27.9607 51.2499C27.9589 51.6071 27.8715 51.9169 27.6986 52.1791C27.5274 52.4394 27.2798 52.6418 26.9558 52.7862C26.6335 52.9287 26.2448 53 25.7896 53C25.3381 53 24.9449 52.9278 24.6099 52.7834C24.2767 52.639 24.0164 52.4252 23.8288 52.142C23.6431 51.857 23.5457 51.5045 23.5366 51.0846H24.6809C24.6936 51.2803 24.7473 51.4437 24.842 51.5748C24.9385 51.704 25.0669 51.8019 25.2271 51.8684C25.3891 51.933 25.5721 51.9653 25.776 51.9653C25.9763 51.9653 26.1501 51.9349 26.2976 51.8741C26.4469 51.8133 26.5625 51.7287 26.6444 51.6204C26.7264 51.5121 26.7673 51.3876 26.7673 51.247C26.7673 51.1159 26.73 51.0057 26.6554 50.9164C26.5825 50.8271 26.4751 50.7511 26.3331 50.6884C26.1929 50.6257 26.0209 50.5686 25.817 50.5173L25.208 50.3577C24.7364 50.238 24.3641 50.0508 24.091 49.7962C23.8179 49.5416 23.6823 49.1986 23.6841 48.7672C23.6823 48.4138 23.7724 48.105 23.9545 47.8409C24.1383 47.5767 24.3905 47.3705 24.7109 47.2223C25.0314 47.0741 25.3955 47 25.8033 47C26.2184 47 26.5807 47.0741 26.8902 47.2223C27.2015 47.3705 27.4437 47.5767 27.6166 47.8409C27.7896 48.105 27.8788 48.4109 27.8843 48.7587H26.7509ZM31.5089 48.2228C31.6746 48.3501 31.7683 48.5287 31.7902 48.7587H32.9235C32.9181 48.4109 32.8289 48.105 32.6559 47.8409C32.4829 47.5767 32.2408 47.3705 31.9295 47.2223C31.62 47.0741 31.2577 47 30.8426 47C30.4347 47 30.0706 47.0741 29.7502 47.2223C29.4298 47.3705 29.1776 47.5767 28.9937 47.8409C28.8117 48.105 28.7215 48.4138 28.7234 48.7672C28.7215 49.1986 28.8572 49.5416 29.1303 49.7962C29.4034 50.0508 29.7757 50.238 30.2472 50.3577L30.8562 50.5173C31.0601 50.5686 31.2322 50.6257 31.3724 50.6884C31.5144 50.7511 31.6218 50.8271 31.6946 50.9164C31.7693 51.0057 31.8066 51.1159 31.8066 51.247C31.8066 51.3876 31.7656 51.5121 31.6837 51.6204C31.6018 51.7287 31.4862 51.8133 31.3369 51.8741C31.1894 51.9349 31.0155 51.9653 30.8153 51.9653C30.6113 51.9653 30.4284 51.933 30.2663 51.8684C30.1061 51.8019 29.9778 51.704 29.8813 51.5748C29.7866 51.4437 29.7329 51.2803 29.7201 51.0846H28.5759C28.585 51.5045 28.6824 51.857 28.8681 52.142C29.0556 52.4252 29.316 52.639 29.6491 52.7834C29.9841 52.9278 30.3774 53 30.8289 53C31.2841 53 31.6728 52.9287 31.995 52.7862C32.3191 52.6418 32.5667 52.4394 32.7378 52.1791C32.9108 51.9169 32.9982 51.6071 33 51.2499C32.9982 51.0067 32.9554 50.791 32.8716 50.6029C32.7897 50.4147 32.6741 50.2513 32.5248 50.1126C32.3755 49.9739 32.1989 49.857 31.995 49.762C31.7911 49.667 31.5672 49.591 31.3232 49.534L30.8207 49.4086C30.6987 49.38 30.584 49.3458 30.4766 49.3059C30.3692 49.2641 30.2745 49.2157 30.1926 49.1606C30.1107 49.1036 30.046 49.0361 29.9987 48.9582C29.9532 48.8803 29.9323 48.7891 29.9359 48.6846C29.9359 48.5591 29.9705 48.447 30.0397 48.3482C30.1107 48.2494 30.2126 48.1724 30.3455 48.1173C30.4784 48.0603 30.6414 48.0318 30.8344 48.0318C31.1184 48.0318 31.3432 48.0955 31.5089 48.2228Z" fill="black"/>
</svg>
