<svg width="45" height="60" viewBox="0 0 45 60" fill="none" xmlns="http://www.w3.org/2000/svg">
<rect x="1" y="1" width="43" height="58" rx="2" stroke="black" stroke-width="2"/>
<path d="M23 25.9454L16.8371 14.5H20.4817L22.5613 18.3048L23 19.1075L23.4387 18.3048L25.5183 14.5H29.1629L23 25.9454Z" stroke="black"/>
<path fill-rule="evenodd" clip-rule="evenodd" d="M23 17.9255L23.5396 17.0928L23 18.0501L22.4604 17.0928L23 17.9255ZM12 14H17.0769L23 24.5238L28.9231 14H34L23 31L12 14Z" fill="black"/>
<path fill-rule="evenodd" clip-rule="evenodd" d="M43 41H2V58H43V41ZM16.3607 47L17.7611 51.4949H17.8148L19.218 47H20.5759L18.5787 52.9162H17.0001L15 47H16.3607ZM24.8519 47H26.0769V50.8421C26.0769 51.2735 25.976 51.6509 25.7742 51.9745C25.5743 52.298 25.2942 52.5503 24.934 52.7313C24.5737 52.9104 24.1541 53 23.6751 53C23.1941 53 22.7736 52.9104 22.4133 52.7313C22.0531 52.5503 21.773 52.298 21.5731 51.9745C21.3732 51.6509 21.2733 51.2735 21.2733 50.8421V47H22.4982V50.7352C22.4982 50.9605 22.5463 51.1608 22.6425 51.3361C22.7406 51.5113 22.8782 51.649 23.0555 51.7492C23.2328 51.8493 23.4393 51.8994 23.6751 51.8994C23.9127 51.8994 24.1192 51.8493 24.2946 51.7492C24.4719 51.649 24.6086 51.5113 24.7048 51.3361C24.8029 51.1608 24.8519 50.9605 24.8519 50.7352V47ZM27.0847 47V52.9162H31V51.8849H28.3096V50.4723H30.7878V49.441H28.3096V48.0313H30.9887V47H27.0847Z" fill="black"/>
</svg>
